<svg width="16" height="12" viewBox="0 0 16 12" fill="none" xmlns="http://www.w3.org/2000/svg">
<path d="M0.5 0.75C0.5 0.335786 0.835786 0 1.25 0H2.40088C2.9253 0 3.39396 0.327334 3.57449 0.819697L4.00725 2H14.0363C14.9037 2 15.5074 2.86195 15.211 3.67718L13.9337 7.18979C13.5385 8.27656 12.5056 9 11.3493 9H6.89689C5.74318 9 4.71213 8.27987 4.31497 7.19667L2.22627 1.5H1.25C0.835786 1.5 0.5 1.16421 0.5 0.75Z" fill="#160042"/>
<path d="M5.00012 11C5.00012 10.4477 5.44784 10 6.00012 10C6.55241 10 7.00012 10.4477 7.00012 11C7.00012 11.5523 6.55241 12 6.00012 12C5.44784 12 5.00012 11.5523 5.00012 11Z" fill="#160042"/>
<path d="M11.0001 11C11.0001 10.4477 11.4478 10 12.0001 10C12.5524 10 13.0001 10.4477 13.0001 11C13.0001 11.5523 12.5524 12 12.0001 12C11.4478 12 11.0001 11.5523 11.0001 11Z" fill="#160042"/>
</svg>
