<svg width="15" height="15" viewBox="0 0 15 15" fill="none" xmlns="http://www.w3.org/2000/svg">
<path d="M7.5 0C6.01664 0 4.56659 0.439867 3.33323 1.26398C2.09986 2.08809 1.13856 3.25943 0.570907 4.62987C0.00324963 6.00032 -0.145275 7.50832 0.144114 8.96317C0.433503 10.418 1.14781 11.7544 2.1967 12.8033C3.2456 13.8522 4.58197 14.5665 6.03683 14.8559C7.49168 15.1453 8.99968 14.9967 10.3701 14.4291C11.7406 13.8614 12.9119 12.9001 13.736 11.6668C14.5601 10.4334 15 8.98336 15 7.5C15 6.51508 14.806 5.53981 14.4291 4.62987C14.0522 3.71993 13.4997 2.89314 12.8033 2.1967C12.1069 1.50026 11.2801 0.947814 10.3701 0.570903C9.46019 0.193993 8.48492 0 7.5 0ZM4.875 3.375C5.17167 3.375 5.46168 3.46297 5.70836 3.62779C5.95503 3.79262 6.14729 4.02688 6.26082 4.30097C6.37435 4.57506 6.40406 4.87666 6.34618 5.16763C6.2883 5.45861 6.14544 5.72588 5.93566 5.93566C5.72588 6.14544 5.45861 6.2883 5.16764 6.34618C4.87667 6.40405 4.57507 6.37435 4.30098 6.26082C4.02689 6.14729 3.79262 5.95503 3.6278 5.70835C3.46298 5.46168 3.375 5.17167 3.375 4.875C3.375 4.47717 3.53304 4.09564 3.81434 3.81434C4.09565 3.53303 4.47718 3.375 4.875 3.375ZM5.03025 11.0302C4.96107 11.1019 4.87831 11.159 4.78681 11.1983C4.6953 11.2376 4.59689 11.2583 4.4973 11.2592C4.39772 11.26 4.29896 11.2411 4.20679 11.2034C4.11461 11.1657 4.03088 11.11 3.96046 11.0395C3.89004 10.9691 3.83435 10.8854 3.79664 10.7932C3.75893 10.701 3.73995 10.6023 3.74081 10.5027C3.74168 10.4031 3.76237 10.3047 3.80168 10.2132C3.84098 10.1217 3.89812 10.0389 3.96975 9.96975L9.96975 3.96975C10.0389 3.89812 10.1217 3.84098 10.2132 3.80167C10.3047 3.76237 10.4031 3.74168 10.5027 3.74081C10.6023 3.73995 10.701 3.75892 10.7932 3.79663C10.8854 3.83434 10.9691 3.89003 11.0395 3.96045C11.11 4.03087 11.1657 4.11461 11.2034 4.20678C11.2411 4.29896 11.2601 4.39772 11.2592 4.4973C11.2583 4.59688 11.2376 4.6953 11.1983 4.7868C11.159 4.8783 11.1019 4.96106 11.0303 5.03025L5.03025 11.0302ZM10.125 11.625C9.82833 11.625 9.53832 11.537 9.29165 11.3722C9.04497 11.2074 8.85271 10.9731 8.73918 10.699C8.62565 10.4249 8.59595 10.1233 8.65382 9.83236C8.7117 9.54139 8.85456 9.27412 9.06434 9.06434C9.27412 8.85456 9.5414 8.7117 9.83237 8.65382C10.1233 8.59594 10.4249 8.62565 10.699 8.73918C10.9731 8.85271 11.2074 9.04497 11.3722 9.29164C11.537 9.53832 11.625 9.82833 11.625 10.125C11.625 10.5228 11.467 10.9044 11.1857 11.1857C10.9044 11.467 10.5228 11.625 10.125 11.625Z" fill="white"/>
</svg>
