<svg width="32" height="29" viewBox="0 0 32 29" fill="none" xmlns="http://www.w3.org/2000/svg">
<path d="M0 25.6004C0 26.4491 0.337142 27.263 0.937258 27.8631C1.53737 28.4632 2.35131 28.8004 3.2 28.8004H28.8C29.6487 28.8004 30.4626 28.4632 31.0627 27.8631C31.6629 27.263 32 26.4491 32 25.6004V22.4004H0V25.6004Z" fill="#C0C0C0"/>
<path d="M22.4 8L16 0L9.6 8L0 0V19.2H32V0L22.4 8ZM19.2 14.4H12.8C12.3757 14.4 11.9687 14.2314 11.6686 13.9314C11.3686 13.6313 11.2 13.2243 11.2 12.8C11.2 12.3757 11.3686 11.9687 11.6686 11.6686C11.9687 11.3686 12.3757 11.2 12.8 11.2H19.2C19.6243 11.2 20.0313 11.3686 20.3314 11.6686C20.6314 11.9687 20.8 12.3757 20.8 12.8C20.8 13.2243 20.6314 13.6313 20.3314 13.9314C20.0313 14.2314 19.6243 14.4 19.2 14.4Z" fill="#C0C0C0"/>
</svg>
